# xmcd CD database file
#
# Track frame offsets:
#	150
#	17335
#	31174
#	59919
#	75259
#	87656
#	101784
#	126137
#	139745
#	149848
#	161837
#	172198
#	184430
#	195200
#	208808
#	221242
#	234289
#	243730
#
# Disc length: 3423 seconds
#
# Revision: 0
# Processed by: cddbd v1.5.2PL0 Copyright (c) Steve Scherf et al.
# Submitted via: CDex 1.70beta2
#
DISCID=120d5d12
DTITLE=Buddy Guy - Buddy Guy - Coleccion Ñ
DYEAR=2012
DGENRE=Blues
TTITLE0=We're Ready
TTITLE1=This Is The End
TTITLE2=First Time I Met The Blues
TTITLE3=Hoodoo Man
TTITLE4=You Sure Can't Do
TTITLE5=Sit And Cry
TTITLE6=Country Girl
TTITLE7=Broken Hearted Blues
TTITLE8=Slop Around
TTITLE9=Try To Quit You
TTITLE10=First Time
TTITLE11=Lawdy Lawdy
TTITLE12=I Got My Eyes On You
TTITLE13=Stone Crazy
TTITLE14=Skippin'
TTITLE15=When My Left Eye Jumps
TTITLE16=The Treasure Untold
TTITLE17=We're Ready - Final
EXTD=YEAR: 2012
EXTT0=
EXTT1=
EXTT2=
EXTT3=
EXTT4=
EXTT5=
EXTT6=
EXTT7=
EXTT8=
EXTT9=
EXTT10=
EXTT11=
EXTT12=
EXTT13=
EXTT14=
EXTT15=
EXTT16=
EXTT17=
PLAYORDER=
